<mxfile host="65bd71144e">
    <diagram name="Page-1" id="etVsyBEr5ORxP3lcf0-8">
        <mxGraphModel dx="999" dy="553" grid="1" gridSize="10" guides="1" tooltips="1" connect="1" arrows="1" fold="1" page="1" pageScale="1" pageWidth="850" pageHeight="1100" math="0" shadow="0">
            <root>
                <mxCell id="0"/>
                <mxCell id="1" parent="0"/>
                <mxCell id="Wbec2utelaQ6NFFqv4vZ-6" value="$STATEMACHINE :Â PizzaSm" style="shape=swimlane;rotatable=0;align=center;verticalAlign=top;fontFamily=Lucida Console;startSize=30;fontSize=14;fontStyle=1;swimlaneFillColor=#18141d;rounded=1;arcSize=15;absoluteArcSize=1;fillColor=#1ba1e2;fontColor=#ffffff;strokeColor=#006EAF;" parent="1" vertex="1">
                    <mxGeometry x="80" y="40" width="460" height="540" as="geometry"/>
                </mxCell>
                <mxCell id="Wbec2utelaQ6NFFqv4vZ-7" value=" " style="fontFamily=Lucida Console;align=left;verticalAlign=top;fillColor=none;gradientColor=none;strokeColor=none;rounded=0;spacingLeft=4;resizable=0;movable=0;deletable=0;rotatable=0;autosize=1;" parent="Wbec2utelaQ6NFFqv4vZ-6" connectable="0" vertex="1">
                    <mxGeometry y="30" width="30" height="20" as="geometry"/>
                </mxCell>
                <mxCell id="72" value="via exit done" style="edgeStyle=orthogonalEdgeStyle;html=1;exitX=0.25;exitY=1;exitDx=0;exitDy=0;entryX=0.25;entryY=0;entryDx=0;entryDy=0;" parent="Wbec2utelaQ6NFFqv4vZ-6" source="6" target="54" edge="1">
                    <mxGeometry relative="1" as="geometry"/>
                </mxCell>
                <mxCell id="6" value="PIZZA_BUILD" style="shape=swimlane;rotatable=0;align=center;verticalAlign=top;fontFamily=Lucida Console;startSize=30;fontSize=14;fontStyle=1;fontColor=#FAFAFA;fillColor=#545454;swimlaneFillColor=default;rounded=1;arcSize=15;absoluteArcSize=1;" parent="Wbec2utelaQ6NFFqv4vZ-6" vertex="1" collapsed="1">
                    <mxGeometry x="30" y="140" width="360" height="80" as="geometry">
                        <mxRectangle x="280" y="340" width="520" height="550" as="alternateBounds"/>
                    </mxGeometry>
                </mxCell>
                <mxCell id="7" value="&lt;font color=&quot;#00aaff&quot;&gt;enter&amp;nbsp;&lt;/font&gt;&lt;font color=&quot;#ffd700&quot;&gt;/&lt;/font&gt;&lt;font color=&quot;#dcdcaa&quot;&gt;&amp;nbsp;console.log(&quot;PIZZA_BUILD entered&quot;);&lt;/font&gt;" style="fontFamily=Lucida Console;align=left;verticalAlign=top;fillColor=none;gradientColor=none;strokeColor=none;rounded=0;spacingLeft=4;resizable=0;movable=0;deletable=0;rotatable=0;autosize=1;html=1;" parent="6" vertex="1" connectable="0">
                    <mxGeometry y="30" width="340" height="30" as="geometry"/>
                </mxCell>
                <mxCell id="39" value="NEXT" style="edgeStyle=none;html=1;exitX=0.25;exitY=1;exitDx=0;exitDy=0;entryX=0.25;entryY=0;entryDx=0;entryDy=0;" parent="6" source="9" target="37" edge="1">
                    <mxGeometry relative="1" as="geometry"/>
                </mxCell>
                <mxCell id="9" value="CRUST" style="shape=swimlane;rotatable=0;align=center;verticalAlign=top;fontFamily=Lucida Console;startSize=30;fontSize=14;fontStyle=1;fontColor=#FAFAFA;fillColor=#545454;swimlaneFillColor=default;rounded=1;arcSize=15;absoluteArcSize=1;" parent="6" vertex="1">
                    <mxGeometry x="165" y="120" width="220" height="70" as="geometry"/>
                </mxCell>
                <mxCell id="10" value="&lt;font color=&quot;#00aaff&quot;&gt;enter&amp;nbsp;&lt;/font&gt;&lt;font color=&quot;#ffd700&quot;&gt;/&lt;/font&gt;&lt;font color=&quot;#dcdcaa&quot;&gt;&amp;nbsp;ask_crust();&lt;/font&gt;" style="fontFamily=Lucida Console;align=left;verticalAlign=top;fillColor=none;gradientColor=none;strokeColor=none;rounded=0;spacingLeft=4;resizable=0;movable=0;deletable=0;rotatable=0;autosize=1;html=1;" parent="9" vertex="1" connectable="0">
                    <mxGeometry y="30" width="170" height="30" as="geometry"/>
                </mxCell>
                <mxCell id="44" value="NEXT" style="edgeStyle=none;html=1;exitX=0.25;exitY=1;exitDx=0;exitDy=0;entryX=0.25;entryY=0;entryDx=0;entryDy=0;" parent="6" source="37" target="42" edge="1">
                    <mxGeometry relative="1" as="geometry"/>
                </mxCell>
                <mxCell id="47" value="NEXT" style="edgeStyle=orthogonalEdgeStyle;html=1;entryX=0;entryY=0.5;entryDx=0;entryDy=0;exitX=0.25;exitY=1;exitDx=0;exitDy=0;" parent="6" source="42" target="49" edge="1">
                    <mxGeometry x="-0.7419" relative="1" as="geometry">
                        <mxPoint x="275" y="540" as="targetPoint"/>
                        <mxPoint as="offset"/>
                    </mxGeometry>
                </mxCell>
                <mxCell id="50" value="BACK" style="edgeStyle=orthogonalEdgeStyle;html=1;exitX=0.75;exitY=0;exitDx=0;exitDy=0;entryX=0.75;entryY=1;entryDx=0;entryDy=0;" parent="6" source="42" target="37" edge="1">
                    <mxGeometry relative="1" as="geometry"/>
                </mxCell>
                <mxCell id="42" value="TOPPINGS" style="shape=swimlane;rotatable=0;align=center;verticalAlign=top;fontFamily=Lucida Console;startSize=30;fontSize=14;fontStyle=1;fontColor=#FAFAFA;fillColor=#545454;swimlaneFillColor=default;rounded=1;arcSize=15;absoluteArcSize=1;strokeColor=rgb(240, 240, 240);" parent="6" vertex="1">
                    <mxGeometry x="165" y="390" width="220" height="70" as="geometry"/>
                </mxCell>
                <mxCell id="43" value="&lt;font color=&quot;#00aaff&quot;&gt;enter&amp;nbsp;&lt;/font&gt;&lt;font color=&quot;#ffd700&quot;&gt;/&lt;/font&gt;&lt;font color=&quot;#dcdcaa&quot;&gt;&amp;nbsp;ask_toppings();&lt;/font&gt;" style="fontFamily=Lucida Console;align=left;verticalAlign=top;fillColor=none;gradientColor=none;strokeColor=none;rounded=0;spacingLeft=4;resizable=0;movable=0;deletable=0;rotatable=0;autosize=1;html=1;" parent="42" vertex="1" connectable="0">
                    <mxGeometry y="30" width="190" height="30" as="geometry"/>
                </mxCell>
                <mxCell id="51" value="BACK" style="edgeStyle=orthogonalEdgeStyle;html=1;exitX=0.75;exitY=0;exitDx=0;exitDy=0;entryX=0.75;entryY=1;entryDx=0;entryDy=0;" parent="6" source="37" target="9" edge="1">
                    <mxGeometry relative="1" as="geometry"/>
                </mxCell>
                <mxCell id="37" value="SIZE" style="shape=swimlane;rotatable=0;align=center;verticalAlign=top;fontFamily=Lucida Console;startSize=30;fontSize=14;fontStyle=1;fontColor=#FAFAFA;fillColor=#545454;swimlaneFillColor=default;rounded=1;arcSize=15;absoluteArcSize=1;strokeColor=rgb(240, 240, 240);" parent="6" vertex="1">
                    <mxGeometry x="165" y="260" width="220" height="70" as="geometry"/>
                </mxCell>
                <mxCell id="38" value="&lt;font color=&quot;#00aaff&quot;&gt;enter&amp;nbsp;&lt;/font&gt;&lt;font color=&quot;#ffd700&quot;&gt;/&lt;/font&gt;&lt;font color=&quot;#dcdcaa&quot;&gt;&amp;nbsp;ask_size();&lt;/font&gt;" style="fontFamily=Lucida Console;align=left;verticalAlign=top;fillColor=none;gradientColor=none;strokeColor=none;rounded=0;spacingLeft=4;resizable=0;movable=0;deletable=0;rotatable=0;autosize=1;html=1;" parent="37" vertex="1" connectable="0">
                    <mxGeometry y="30" width="160" height="30" as="geometry"/>
                </mxCell>
                <mxCell id="97" value="&lt;font color=&quot;#bd890f&quot;&gt;$&lt;/font&gt;HC" style="fontFamily=Helvetica;align=center;verticalAlign=middle;shape=ellipse;aspect=fixed;resizable=0;rotatable=0;labelPosition=center;verticalLabelPosition=middle;strokeColor=#d79b00;strokeWidth=1;fillColor=#ffcd28;gradientColor=#ffa500;gradientDirection=north;html=1;fontColor=#000000;fontStyle=1;" parent="6" vertex="1">
                    <mxGeometry x="360" y="60" width="30" height="30" as="geometry"/>
                </mxCell>
                <mxCell id="98" style="edgeStyle=none;html=1;" parent="6" source="12" target="9" edge="1">
                    <mxGeometry relative="1" as="geometry"/>
                </mxCell>
                <mxCell id="12" value="$initial_state" style="shape=ellipse;aspect=fixed;fillColor=#000000;resizable=0;rotatable=0;noLabel=1;html=1;" parent="6" vertex="1">
                    <mxGeometry x="262.5" y="62.5" width="25" height="25" as="geometry"/>
                </mxCell>
                <mxCell id="100" value="NOTE!&lt;br&gt;The $HC History Continue vertex means that these states will be tracked by the parent history state." style="shape=note;strokeWidth=2;fontSize=14;size=20;whiteSpace=wrap;html=1;fillColor=#fff2cc;strokeColor=#d6b656;fontColor=#666600;align=left;" parent="6" vertex="1">
                    <mxGeometry x="420" y="62.5" width="280" height="80" as="geometry"/>
                </mxCell>
                <mxCell id="49" value="exit : done" style="fontFamily=Lucida Console;align=center;verticalAlign=middle;shape=ellipse;aspect=fixed;resizable=0;rotatable=0;labelPosition=center;verticalLabelPosition=top;strokeColor=#b11f1f;strokeWidth=4;fillColor=#FFFFFF;gradientColor=#d4d4d4cc;html=1;" parent="6" vertex="1">
                    <mxGeometry x="260" y="560" width="30" height="30" as="geometry"/>
                </mxCell>
                <mxCell id="104" style="edgeStyle=orthogonalEdgeStyle;html=1;entryX=0.75;entryY=1;entryDx=0;entryDy=0;" parent="6" source="101" target="42" edge="1">
                    <mxGeometry relative="1" as="geometry"/>
                </mxCell>
                <mxCell id="101" value="entry : from_back" style="fontFamily=Lucida Console;align=center;verticalAlign=middle;shape=ellipse;aspect=fixed;resizable=0;rotatable=0;labelPosition=center;verticalLabelPosition=top;strokeColor=#27ae27;strokeWidth=4;fillColor=#FFFFFF;gradientColor=#d4d4d4cc;" parent="6" vertex="1">
                    <mxGeometry x="410" y="500" width="30" height="30" as="geometry"/>
                </mxCell>
                <mxCell id="53" style="edgeStyle=orthogonalEdgeStyle;html=1;exitX=0.5;exitY=1;exitDx=0;exitDy=0;" parent="Wbec2utelaQ6NFFqv4vZ-6" source="8" target="6" edge="1">
                    <mxGeometry relative="1" as="geometry"/>
                </mxCell>
                <mxCell id="73" value="BACK via entry from_back" style="edgeStyle=orthogonalEdgeStyle;html=1;exitX=0.75;exitY=0;exitDx=0;exitDy=0;entryX=0.75;entryY=1;entryDx=0;entryDy=0;" parent="Wbec2utelaQ6NFFqv4vZ-6" source="54" target="6" edge="1">
                    <mxGeometry relative="1" as="geometry"/>
                </mxCell>
                <mxCell id="94" value="via exit done" style="edgeStyle=orthogonalEdgeStyle;html=1;exitX=0.5;exitY=1;exitDx=0;exitDy=0;entryX=0.5;entryY=0;entryDx=0;entryDy=0;" parent="Wbec2utelaQ6NFFqv4vZ-6" source="54" target="95" edge="1">
                    <mxGeometry relative="1" as="geometry">
                        <mxPoint x="210" y="460" as="targetPoint"/>
                    </mxGeometry>
                </mxCell>
                <mxCell id="54" value="PURCHASING" style="shape=swimlane;rotatable=0;align=center;verticalAlign=top;fontFamily=Lucida Console;startSize=30;fontSize=14;fontStyle=1;fontColor=#FAFAFA;fillColor=#545454;swimlaneFillColor=default;rounded=1;arcSize=15;absoluteArcSize=1;" parent="Wbec2utelaQ6NFFqv4vZ-6" vertex="1" collapsed="1">
                    <mxGeometry x="30" y="300" width="360" height="80" as="geometry">
                        <mxRectangle x="280" y="340" width="520" height="550" as="alternateBounds"/>
                    </mxGeometry>
                </mxCell>
                <mxCell id="55" value=" " style="fontFamily=Lucida Console;align=left;verticalAlign=top;fillColor=none;gradientColor=none;strokeColor=none;rounded=0;spacingLeft=4;resizable=0;movable=0;deletable=0;rotatable=0;autosize=1;" parent="54" vertex="1" connectable="0">
                    <mxGeometry y="30" width="30" height="20" as="geometry"/>
                </mxCell>
                <mxCell id="56" value="NEXT" style="edgeStyle=none;html=1;exitX=0.25;exitY=1;exitDx=0;exitDy=0;entryX=0.25;entryY=0;entryDx=0;entryDy=0;" parent="54" source="57" target="70" edge="1">
                    <mxGeometry relative="1" as="geometry"/>
                </mxCell>
                <mxCell id="57" value="REVIEW_ORDER" style="shape=swimlane;rotatable=0;align=center;verticalAlign=top;fontFamily=Lucida Console;startSize=30;fontSize=14;fontStyle=1;fontColor=#FAFAFA;fillColor=#545454;swimlaneFillColor=default;rounded=1;arcSize=15;absoluteArcSize=1;" parent="54" vertex="1">
                    <mxGeometry x="165" y="120" width="220" height="70" as="geometry"/>
                </mxCell>
                <mxCell id="58" value="&lt;font color=&quot;#00aaff&quot;&gt;enter&amp;nbsp;&lt;/font&gt;&lt;font color=&quot;#ffd700&quot;&gt;/&lt;/font&gt;&lt;font color=&quot;#dcdcaa&quot;&gt;&amp;nbsp;ask_review_order();&lt;/font&gt;" style="fontFamily=Lucida Console;align=left;verticalAlign=top;fillColor=none;gradientColor=none;strokeColor=none;rounded=0;spacingLeft=4;resizable=0;movable=0;deletable=0;rotatable=0;autosize=1;html=1;" parent="57" vertex="1" connectable="0">
                    <mxGeometry y="30" width="220" height="30" as="geometry"/>
                </mxCell>
                <mxCell id="64" value="NEXT" style="edgeStyle=orthogonalEdgeStyle;html=1;entryX=0;entryY=0.5;entryDx=0;entryDy=0;exitX=0.25;exitY=1;exitDx=0;exitDy=0;" parent="54" source="70" target="68" edge="1">
                    <mxGeometry relative="1" as="geometry">
                        <mxPoint x="280" y="460" as="sourcePoint"/>
                        <mxPoint x="275" y="540" as="targetPoint"/>
                    </mxGeometry>
                </mxCell>
                <mxCell id="69" value="BACK" style="edgeStyle=orthogonalEdgeStyle;html=1;exitX=0.75;exitY=0;exitDx=0;exitDy=0;entryX=0.75;entryY=1;entryDx=0;entryDy=0;" parent="54" source="70" target="57" edge="1">
                    <mxGeometry relative="1" as="geometry"/>
                </mxCell>
                <mxCell id="70" value="CONFIRM_ORDER" style="shape=swimlane;rotatable=0;align=center;verticalAlign=top;fontFamily=Lucida Console;startSize=30;fontSize=14;fontStyle=1;fontColor=#FAFAFA;fillColor=#545454;swimlaneFillColor=default;rounded=1;arcSize=15;absoluteArcSize=1;strokeColor=rgb(240, 240, 240);" parent="54" vertex="1">
                    <mxGeometry x="165" y="260" width="220" height="70" as="geometry"/>
                </mxCell>
                <mxCell id="71" value="&lt;font color=&quot;#00aaff&quot;&gt;enter&amp;nbsp;&lt;/font&gt;&lt;font color=&quot;#ffd700&quot;&gt;/&lt;/font&gt;&lt;font color=&quot;#dcdcaa&quot;&gt;&amp;nbsp;ask_confirmation();&lt;/font&gt;" style="fontFamily=Lucida Console;align=left;verticalAlign=top;fillColor=none;gradientColor=none;strokeColor=none;rounded=0;spacingLeft=4;resizable=0;movable=0;deletable=0;rotatable=0;autosize=1;html=1;" parent="70" vertex="1" connectable="0">
                    <mxGeometry y="30" width="220" height="30" as="geometry"/>
                </mxCell>
                <mxCell id="75" style="edgeStyle=orthogonalEdgeStyle;html=1;" parent="54" source="74" target="57" edge="1">
                    <mxGeometry relative="1" as="geometry"/>
                </mxCell>
                <mxCell id="74" value="$initial_state" style="shape=ellipse;aspect=fixed;fillColor=#000000;resizable=0;rotatable=0;noLabel=1;html=1;" parent="54" vertex="1">
                    <mxGeometry x="263" y="70" width="25" height="25" as="geometry"/>
                </mxCell>
                <mxCell id="76" value="NOTE!&lt;br&gt;We don't use a history continue state here, because the user should review any changes they've made." style="shape=note;strokeWidth=2;fontSize=14;size=20;whiteSpace=wrap;html=1;fillColor=#fff2cc;strokeColor=#d6b656;fontColor=#666600;align=left;" parent="54" vertex="1">
                    <mxGeometry x="340" y="20" width="280" height="80" as="geometry"/>
                </mxCell>
                <mxCell id="68" value="exit : done" style="fontFamily=Lucida Console;align=center;verticalAlign=middle;shape=ellipse;aspect=fixed;resizable=0;rotatable=0;labelPosition=center;verticalLabelPosition=top;strokeColor=#b11f1f;strokeWidth=4;fillColor=#FFFFFF;gradientColor=#d4d4d4cc;html=1;" parent="54" vertex="1">
                    <mxGeometry x="288" y="380" width="30" height="30" as="geometry"/>
                </mxCell>
                <mxCell id="99" value="CANCEL" style="edgeStyle=orthogonalEdgeStyle;html=1;exitX=1;exitY=0.5;exitDx=0;exitDy=0;entryX=1;entryY=0.5;entryDx=0;entryDy=0;" parent="Wbec2utelaQ6NFFqv4vZ-6" source="95" target="6" edge="1">
                    <mxGeometry x="-0.7753" relative="1" as="geometry">
                        <Array as="points">
                            <mxPoint x="430" y="475"/>
                            <mxPoint x="430" y="180"/>
                        </Array>
                        <mxPoint as="offset"/>
                    </mxGeometry>
                </mxCell>
                <mxCell id="95" value="ORDERED" style="shape=swimlane;rotatable=0;align=center;verticalAlign=top;fontFamily=Lucida Console;startSize=30;fontSize=14;fontStyle=1;fontColor=#FAFAFA;fillColor=#545454;swimlaneFillColor=default;rounded=1;arcSize=15;absoluteArcSize=1;strokeColor=rgb(240, 240, 240);" parent="Wbec2utelaQ6NFFqv4vZ-6" vertex="1">
                    <mxGeometry x="100" y="440" width="220" height="70" as="geometry"/>
                </mxCell>
                <mxCell id="96" value="&lt;font color=&quot;#00aaff&quot;&gt;enter&amp;nbsp;&lt;/font&gt;&lt;font color=&quot;#ffd700&quot;&gt;/&lt;/font&gt;&lt;font color=&quot;#dcdcaa&quot;&gt;&amp;nbsp;show_ordered();&lt;/font&gt;" style="fontFamily=Lucida Console;align=left;verticalAlign=top;fillColor=none;gradientColor=none;strokeColor=none;rounded=0;spacingLeft=4;resizable=0;movable=0;deletable=0;rotatable=0;autosize=1;html=1;" parent="95" vertex="1" connectable="0">
                    <mxGeometry y="30" width="190" height="30" as="geometry"/>
                </mxCell>
                <mxCell id="Wbec2utelaQ6NFFqv4vZ-8" style="edgeStyle=none;html=1;strokeColor=#F0F0F0;entryX=0;entryY=0.5;entryDx=0;entryDy=0;" parent="Wbec2utelaQ6NFFqv4vZ-6" source="Wbec2utelaQ6NFFqv4vZ-12" target="8" edge="1">
                    <mxGeometry relative="1" as="geometry">
                        <mxPoint x="208.9743589743589" y="-50" as="targetPoint"/>
                    </mxGeometry>
                </mxCell>
                <mxCell id="8" value="&lt;font color=&quot;#bd890f&quot;&gt;$&lt;/font&gt;H" style="fontFamily=Helvetica;align=center;verticalAlign=middle;shape=ellipse;aspect=fixed;resizable=0;rotatable=0;labelPosition=center;verticalLabelPosition=middle;strokeColor=#d79b00;strokeWidth=1;fillColor=#ffcd28;gradientColor=#ffa500;gradientDirection=north;html=1;fontColor=#000000;fontStyle=1;" parent="Wbec2utelaQ6NFFqv4vZ-6" vertex="1">
                    <mxGeometry x="195" y="80" width="30" height="30" as="geometry"/>
                </mxCell>
                <mxCell id="Wbec2utelaQ6NFFqv4vZ-12" value="$initial_state" style="shape=ellipse;aspect=fixed;fillColor=#000000;resizable=1;rotatable=1;noLabel=1;editable=1;movable=1;deletable=1;connectable=1;strokeColor=#F0F0F0;" parent="Wbec2utelaQ6NFFqv4vZ-6" vertex="1">
                    <mxGeometry x="120" y="83" width="25" height="25" as="geometry"/>
                </mxCell>
            </root>
        </mxGraphModel>
    </diagram>
</mxfile>